<svg id="图层_1" data-name="图层 1" xmlns="http://www.w3.org/2000/svg" viewBox="0 0 14 14"><defs><style>.cls-1{fill:#95a4bc;}</style></defs><title>ic_switch_list_default</title><path class="cls-1" d="M5.36,7.44A1.31,1.31,0,0,1,6.67,8.75v3.94A1.31,1.31,0,0,1,5.36,14H1.42A1.31,1.31,0,0,1,.11,12.69V8.75A1.31,1.31,0,0,1,1.42,7.44Zm8.53,4.15v1.32H7.55V11.59ZM5.36,8.75H1.42v3.94H5.36Zm8.53,0v1.31H7.55V8.75ZM5.36,0A1.31,1.31,0,0,1,6.67,1.31V5.25A1.31,1.31,0,0,1,5.36,6.56H1.42A1.31,1.31,0,0,1,.11,5.25V1.31A1.31,1.31,0,0,1,1.42,0Zm0,1.31H1.42V5.25H5.36Zm8.53,2.63V5.25H7.55V3.94Zm0-2.85V2.41H7.55V1.09Zm0,0"/></svg>