<svg id="图层_1" data-name="图层 1" xmlns="http://www.w3.org/2000/svg" viewBox="0 0 14 14"><defs><style>.cls-1{fill:#fff;}</style></defs><title>ic_switch_card_pressed</title><path class="cls-1" d="M5.25,0A1.31,1.31,0,0,1,6.56,1.31V12.69A1.31,1.31,0,0,1,5.25,14H1.31A1.31,1.31,0,0,1,0,12.69V1.31A1.31,1.31,0,0,1,1.31,0Zm7.44,7.44A1.31,1.31,0,0,1,14,8.75v3.94A1.31,1.31,0,0,1,12.69,14H8.75a1.31,1.31,0,0,1-1.31-1.31V8.75A1.31,1.31,0,0,1,8.75,7.44ZM5.25,1.31H1.31V12.69H5.25Zm7.44,7.44H8.75v3.94h3.94Zm0-8.75A1.31,1.31,0,0,1,14,1.31V5.25a1.31,1.31,0,0,1-1.31,1.31H8.75A1.31,1.31,0,0,1,7.44,5.25V1.31A1.31,1.31,0,0,1,8.75,0Zm0,1.31H8.75V5.25h3.94Zm0,0"/></svg>