<svg id="图层_1" data-name="图层 1" xmlns="http://www.w3.org/2000/svg" viewBox="0 0 16 16"><defs><style>.cls-1{fill:#0681C7;}</style></defs><title>ic_bgbbgl</title><path class="cls-1" d="M15,3V13H1V3H15m.44-1H.56A.56.56,0,0,0,0,2.56V13.44A.56.56,0,0,0,.56,14H15.44a.56.56,0,0,0,.56-.56V2.56A.56.56,0,0,0,15.44,2Z"/><polygon class="cls-1" points="16 5.67 0 5.67 0 6.67 16 6.67 16 5.67 16 5.67"/><polygon class="cls-1" points="6 2 5 2 5 14 6 14 6 2 6 2"/><polygon class="cls-1" points="11 2 10 2 10 14 11 14 11 2 11 2"/><polygon class="cls-1" points="16 9.33 0 9.33 0 10.33 16 10.33 16 9.33 16 9.33"/></svg>
