<svg id="图层_1" data-name="图层 1" xmlns="http://www.w3.org/2000/svg" viewBox="0 0 16 16"><defs><style>.cls-1{fill:#3DB7FF;}</style></defs><title>ic_cpsmzq</title><path class="cls-1" d="M8,9.15a.57.57,0,0,1-.25-.06L.3,5.22a.54.54,0,0,1,0-1L7.74.38A.57.57,0,0,1,8,.32a.58.58,0,0,1,.26.06l.3.15,7.14,3.72a.54.54,0,0,1,0,1L8.25,9.09A.58.58,0,0,1,8,9.15ZM7.9,1.54,1.75,4.74,8,8l6.25-3.24L8,1.52h-.1Zm0,0"/><path class="cls-1" d="M8,12.42a.59.59,0,0,1-.25-.07L.3,8.49A.53.53,0,0,1,0,8a.57.57,0,0,1,.26-.49.52.52,0,0,1,.29-.09.59.59,0,0,1,.26.07L8,11.25l7.19-3.73a.55.55,0,0,1,.25-.07.54.54,0,0,1,.49.3.59.59,0,0,1,0,.41.51.51,0,0,1-.27.32L8.26,12.35a.54.54,0,0,1-.27.07Zm0,0"/><path class="cls-1" d="M8,15.68a.57.57,0,0,1-.25-.06L.3,11.76A.54.54,0,0,1,0,11.44a.52.52,0,0,1,0-.42.54.54,0,0,1,.48-.29.58.58,0,0,1,.26.06L8,14.5h.1l0,0,7.1-3.69a.54.54,0,0,1,.25-.06.55.55,0,0,1,.49.29.61.61,0,0,1,0,.42.58.58,0,0,1-.27.32L8.27,15.63a.72.72,0,0,1-.28,0Zm0,0"/><path class="cls-1" d="M8,9.15a.57.57,0,0,1-.25-.06L.3,5.22a.54.54,0,0,1,0-1L7.74.38A.57.57,0,0,1,8,.32a.58.58,0,0,1,.26.06l.3.15,7.14,3.72a.54.54,0,0,1,0,1L8.25,9.09A.58.58,0,0,1,8,9.15ZM7.9,1.54,1.75,4.74,8,8l6.25-3.24L8,1.52h-.1Zm0,0"/><path class="cls-1" d="M8,12.42a.59.59,0,0,1-.25-.07L.3,8.49A.53.53,0,0,1,0,8a.57.57,0,0,1,.26-.49.52.52,0,0,1,.29-.09.59.59,0,0,1,.26.07L8,11.25l7.19-3.73a.55.55,0,0,1,.25-.07.54.54,0,0,1,.49.3.59.59,0,0,1,0,.41.51.51,0,0,1-.27.32L8.26,12.35a.54.54,0,0,1-.27.07Zm0,0"/><path class="cls-1" d="M8,15.68a.57.57,0,0,1-.25-.06L.3,11.76A.54.54,0,0,1,0,11.44a.52.52,0,0,1,0-.42.54.54,0,0,1,.48-.29.58.58,0,0,1,.26.06L8,14.5h.1l0,0,7.1-3.69a.54.54,0,0,1,.25-.06.55.55,0,0,1,.49.29.61.61,0,0,1,0,.42.58.58,0,0,1-.27.32L8.27,15.63a.72.72,0,0,1-.28,0Zm0,0"/></svg>
