<svg id="图层_1" data-name="图层 1" xmlns="http://www.w3.org/2000/svg" viewBox="0 0 16 16"><defs><style>.cls-1{fill:#FC5E49;}.cls-2{fill:#FC5E49;}</style></defs><title>ic_dgrzgl</title><path d="M12.26,2V.21h-.88V2H4.62V.21H3.74V2H.05V15.79H16V2Zm2.8,13H.94V2.84h2.8v.92h.88V2.84h6.76v.92h.88V2.84h2.8ZM3.26,6.77H4.2v.89H3.26Zm0,3.63H4.2v.89H3.26Zm2.36,0H13.2v.89H5.62Zm0-3.63H13.2v.89H5.62Zm0,0"/><path class="cls-1" d="M16,15.84H0V1.9H3.69V.16h1V1.9h6.66V.16h1V1.9H16ZM.1,15.74H15.9V2H12.21V.26h-.78V2H4.57V.26H3.79V2H.1Zm15-.79H.89V2.79h2.9v.92h.78V2.79h6.85v.92h.79V2.79h2.9ZM1,14.86H15v-12h-2.7v.92h-1V2.89H4.67v.92h-1V2.89H1Zm12.26-3.52H5.57v-1h7.68Zm-7.58-.1h7.48v-.79H5.67Zm-1.42.1h-1v-1h1Zm-.94-.1h.84v-.79H3.31Zm9.94-3.53H5.57v-1h7.68Zm-7.58-.1h7.48V6.82H5.67Zm-1.42.1h-1v-1h1Zm-.94-.1h.84V6.82H3.31Z"/><path class="cls-2" d="M12.26,2V.21h-.88V2H4.62V.21H3.74V2H.05V15.79H16V2Zm2.8,13H.94V2.84h2.8v.92h.88V2.84h6.76v.92h.88V2.84h2.8ZM3.26,6.77H4.2v.89H3.26Zm0,3.63H4.2v.89H3.26Zm2.36,0H13.2v.89H5.62Zm0-3.63H13.2v.89H5.62Zm0,0"/><path class="cls-2" d="M16,15.84H0V1.9H3.69V.16h1V1.9h6.66V.16h1V1.9H16ZM.1,15.74H15.9V2H12.21V.26h-.78V2H4.57V.26H3.79V2H.1Zm15-.79H.89V2.79h2.9v.92h.78V2.79h6.85v.92h.79V2.79h2.9ZM1,14.86H15v-12h-2.7v.92h-1V2.89H4.67v.92h-1V2.89H1Zm12.26-3.52H5.57v-1h7.68Zm-7.58-.1h7.48v-.79H5.67Zm-1.42.1h-1v-1h1Zm-.94-.1h.84v-.79H3.31Zm9.94-3.53H5.57v-1h7.68Zm-7.58-.1h7.48V6.82H5.67Zm-1.42.1h-1v-1h1Zm-.94-.1h.84V6.82H3.31Z"/></svg>
