<svg id="图层_1" data-name="图层 1" xmlns="http://www.w3.org/2000/svg" viewBox="0 0 16 16"><defs><style>.cls-1{fill:#FDAB23;}</style></defs><title>ic_rwzx</title><path class="cls-1" d="M15,3V13H1V3H15m.44-1H.56A.56.56,0,0,0,0,2.56V13.44A.56.56,0,0,0,.56,14H15.44a.56.56,0,0,0,.56-.56V2.56A.56.56,0,0,0,15.44,2Z"/><rect class="cls-1" x="2.48" y="5.98" width="4.08" height="1" rx="0.15"/><rect class="cls-1" x="2.48" y="8.62" width="4.08" height="1" rx="0.15"/><path class="cls-1" d="M12.29,5.9,10.44,8.47,9.5,7.16A.31.31,0,0,0,9.27,7h-1a.15.15,0,0,0-.12.23l2,2.83a.29.29,0,0,0,.46,0L13.62,6a.14.14,0,0,0-.12-.22h-1a.26.26,0,0,0-.23.11Z"/></svg>
