<svg id="图层_1" data-name="图层 1" xmlns="http://www.w3.org/2000/svg" viewBox="0 0 16 16"><defs><style>.cls-1{fill:#9537FF;}</style></defs><path class="cls-1" d="M15.83,13.83H1.5V.83A.17.17,0,0,0,1.33.67H.17A.17.17,0,0,0,0,.83V15.17a.17.17,0,0,0,.17.16H15.83a.16.16,0,0,0,.17-.16V14A.17.17,0,0,0,15.83,13.83Z"/><path class="cls-1" d="M3.33,12.17H4.5A.18.18,0,0,0,4.67,12V9a.18.18,0,0,0-.17-.17H3.33A.17.17,0,0,0,3.17,9v3A.17.17,0,0,0,3.33,12.17Zm3.17,0H7.67A.17.17,0,0,0,7.83,12V5.33a.16.16,0,0,0-.16-.16H6.5a.17.17,0,0,0-.17.16V12A.18.18,0,0,0,6.5,12.17Zm3.17,0h1.16A.17.17,0,0,0,11,12V7a.17.17,0,0,0-.17-.17H9.67A.17.17,0,0,0,9.5,7v5A.17.17,0,0,0,9.67,12.17Zm3.16,0H14a.18.18,0,0,0,.17-.17V3.67A.18.18,0,0,0,14,3.5H12.83a.17.17,0,0,0-.16.17V12A.17.17,0,0,0,12.83,12.17Z"/></svg>
