<svg xmlns="http://www.w3.org/2000/svg" width="22" height="22" viewBox="0 0 22 22">
  <g id="icon_head_list_22_normal" transform="translate(-89 -89)">
    <rect id="矩形_40" data-name="矩形 40" width="22" height="22" transform="translate(89 89)" fill="none"/>
    <path id="路径_254" data-name="路径 254" d="M108.594,93.125H96.047a.172.172,0,0,0-.172.172v1.2a.172.172,0,0,0,.172.172h12.547a.173.173,0,0,0,.172-.172V93.3A.173.173,0,0,0,108.594,93.125Zm0,6.1H96.047a.172.172,0,0,0-.172.171v1.2a.172.172,0,0,0,.172.171h12.547a.172.172,0,0,0,.172-.171V99.4A.172.172,0,0,0,108.594,99.227Zm0,6.1H96.047a.172.172,0,0,0-.172.172v1.2a.172.172,0,0,0,.172.172h12.547a.173.173,0,0,0,.172-.172v-1.2A.173.173,0,0,0,108.594,105.328Z" fill="#575d6c"/>
    <path id="路径_255" data-name="路径 255" d="M91.234,93.9a1.2,1.2,0,1,0,1.2-1.2A1.2,1.2,0,0,0,91.234,93.9Z" fill="#575d6c"/>
    <path id="路径_256" data-name="路径 256" d="M91.234,100a1.2,1.2,0,1,0,1.2-1.2A1.2,1.2,0,0,0,91.234,100Z" fill="#575d6c"/>
    <path id="路径_257" data-name="路径 257" d="M91.234,106.1a1.2,1.2,0,1,0,1.2-1.2A1.2,1.2,0,0,0,91.234,106.1Z" fill="#575d6c"/>
  </g>
</svg>
