<svg xmlns="http://www.w3.org/2000/svg" width="22" height="22" viewBox="0 0 22 22">
  <g id="icon_head_card_22_selected" transform="translate(-13 -89)">
    <rect id="矩形_35" data-name="矩形 35" width="22" height="22" transform="translate(13 89)" fill="none"/>
    <path id="路径_249" data-name="路径 249" d="M22.969,92.094H16.437a.344.344,0,0,0-.343.344v6.531a.344.344,0,0,0,.343.344h6.532a.344.344,0,0,0,.343-.344V92.438A.344.344,0,0,0,22.969,92.094Zm-1.117,5.758h-4.3v-4.3h4.3Z" fill="#fff"/>
    <path id="路径_250" data-name="路径 250" d="M31.562,92.094H25.031a.345.345,0,0,0-.344.344v6.531a.345.345,0,0,0,.344.344h6.531a.345.345,0,0,0,.344-.344V92.438A.344.344,0,0,0,31.562,92.094Zm-1.117,5.758h-4.3v-4.3h4.3Z" fill="#fff"/>
    <path id="路径_251" data-name="路径 251" d="M31.562,100.688H25.031a.344.344,0,0,0-.344.343v6.532a.344.344,0,0,0,.344.343h6.531a.344.344,0,0,0,.344-.343v-6.532A.344.344,0,0,0,31.562,100.688Zm-1.117,5.757h-4.3v-4.3h4.3Z" fill="#fff"/>
    <path id="路径_252" data-name="路径 252" d="M22.969,100.688H16.437a.344.344,0,0,0-.343.343v6.532a.344.344,0,0,0,.343.343h6.532a.344.344,0,0,0,.343-.343v-6.532A.344.344,0,0,0,22.969,100.688Zm-1.117,5.757h-4.3v-4.3h4.3Z" fill="#fff"/>
  </g>
</svg>
